<svg version="1.1" xmlns="http://www.w3.org/2000/svg" viewBox="0 0 771 321.5" width="771" height="321.5">
  <!-- svg-source:excalidraw -->
  
  <defs>
    <style class="style-fonts">
      @font-face {
        font-family: "Virgil";
        src: url("https://excalidraw.com/Virgil.woff2");
      }
      @font-face {
        font-family: "Cascadia";
        src: url("https://excalidraw.com/Cascadia.woff2");
      }
    </style>
  </defs>
  <rect x="0" y="0" width="771" height="321.5" fill="#ffffff"></rect><g stroke-linecap="round" transform="translate(10 193.5) rotate(0 375 59)"><path d="M0 0 C0 0, 0 0, 0 0 M0 0 C0 0, 0 0, 0 0 M-0.18 5.86 C1.56 4.75, 3.81 2.01, 4.63 -0.44 M-0.27 6 C1.04 4.58, 2.66 2.49, 4.84 0.58 M0.97 11.59 C4.36 6.83, 7.7 2.75, 10.96 -1.1 M0.43 11.25 C3.03 8.63, 6.28 5.24, 10.64 0.48 M-1.02 17.4 C2.22 14.85, 5.9 9.46, 16.21 1.96 M-0.69 18.52 C5.02 12.82, 9.52 6.41, 16.36 0.25 M-1.53 24.84 C8.25 18.12, 11.4 8.7, 21.06 0.13 M0.44 23.5 C5.42 19.54, 8.42 14.3, 22.16 0.62 M-1.39 28.7 C5.92 24.08, 15.7 15.59, 25.35 0.38 M0.93 30.39 C5.95 24.57, 11.68 16.35, 25.48 -0.55 M-0.24 35.56 C6.51 28.45, 12.69 19.13, 33.27 1.42 M0.27 36.45 C10.2 23.97, 21.85 12.18, 32.11 -0.21 M-1.38 43.99 C9.38 29.81, 19.22 16.68, 35.23 -0.47 M0.38 42.58 C12.24 29.51, 22.59 15.42, 35.96 -0.44 M1.21 50.89 C13.79 33.27, 27.98 18.58, 41.95 0.59 M0.72 48.99 C10.81 37.84, 19.37 27.42, 42.32 -0.07 M0.42 56.25 C18.83 36.22, 34.41 12.85, 46.2 2.19 M0.9 54.46 C16.22 37.44, 31.83 19.01, 47.7 0.9 M1.63 61.25 C13.73 46.51, 24.12 32.3, 52.97 1.63 M0.48 61.78 C9.78 48.11, 20.62 36.13, 53.06 -0.35 M0.34 69.09 C12.54 50.48, 25.73 35.47, 57.16 2.06 M-0.44 66.96 C22.38 40.17, 46.24 13.64, 57.59 0.11 M-0.94 71.23 C22.84 44.54, 46.5 16.71, 65.78 0.45 M-0.13 73 C24.15 47.32, 46.66 19.48, 64.05 -0.64 M-1.7 79.79 C16.57 57.41, 37.2 36.61, 67.62 1.75 M0.82 78.54 C23.46 54.19, 45.1 26.94, 68.46 1.12 M0.12 86.29 C24.76 54.29, 51.89 25.36, 75.45 -1.14 M1.14 84.14 C17.01 65.28, 31.16 47.16, 73.47 0.24 M-0.19 89.79 C23.83 63.34, 50.38 35.71, 79.7 -1.22 M-0.35 90.71 C23.95 63.43, 47.67 34.35, 80.08 0.15 M1.4 99.59 C33.6 61.71, 66.11 22.54, 86.64 -1.43 M-1.13 97.75 C32.23 60.68, 67.38 21.66, 84.95 -0.69 M0.66 103.67 C17.11 82.67, 37.55 59.45, 88.08 -0.45 M1.12 104.04 C37.16 62.33, 72.35 21.94, 90.18 0.72 M-1.97 110.91 C25.85 80.25, 48.05 54.52, 95.58 -0.79 M-0.47 109.4 C34.41 69.96, 69.56 29.78, 96.58 0.35 M0.21 115.93 C29.06 85.74, 57.07 52.93, 102.07 1.4 M0.74 115.88 C26.83 84.54, 52.12 56.81, 101.45 0.64 M3.74 118.93 C44.2 74, 83.01 29.1, 108.11 0.3 M2.56 118.97 C36.06 79.63, 70.24 39.72, 105.89 -1.04 M5.98 121.44 C37.2 84.97, 67.41 51, 111.54 -1.45 M6.06 119.83 C47.61 74.19, 88.4 24.91, 110.54 -0.95 M14.1 121.22 C48.36 78.12, 86.47 36.58, 117.02 0.02 M12.6 119.57 C46.78 81.17, 81.25 42.47, 116.22 0.27 M15.92 119.51 C44.35 89.64, 67.63 63.27, 120.98 0.14 M17.87 120.88 C52.26 78.69, 87.26 39.57, 121.02 -0.67 M24.19 119.59 C61.63 75.38, 99.87 30.09, 126.64 2.22 M24.14 120.01 C55.54 82.06, 87.55 45.52, 126.33 0.98 M28.24 118.89 C71.33 74.22, 111.97 26.61, 131.47 0.23 M29.12 119.29 C55.27 90.69, 81.12 60.33, 132.46 0.22 M34.2 118.98 C73.8 73.46, 114.75 28.47, 138.93 -1.11 M34.17 120.55 C60.9 87.95, 86.56 57.76, 137.45 0.81 M40.68 121.7 C61.69 93.7, 81.35 71.2, 142.66 -0.26 M39.15 119.61 C73.09 82.6, 104.72 44.56, 143.33 0.7 M42.93 119.19 C67.93 92.18, 89.12 67.85, 150.12 1.19 M44.63 119.75 C74.19 83.68, 105.61 48.06, 148.93 0.54 M48.58 117.97 C77.88 88.15, 106.84 55.84, 154.82 0.55 M48.74 120.18 C87.78 76.47, 126.52 32.22, 154.11 -0.92 M53.77 120.97 C79.05 91.13, 98.49 66.16, 160 2.17 M55.4 119.48 C93.61 75.46, 132.76 31.47, 158.58 -0.26 M58.88 119.64 C95.04 83.66, 129.26 44.96, 162.81 -0.58 M59.13 120.14 C84.88 91.67, 109.85 63.54, 164.18 -0.03 M64.69 119.95 C102.46 72.41, 142.89 29.08, 169.99 -1.2 M65.33 119.91 C103.58 76.74, 142.49 33.16, 169.66 -0.2 M72.1 118.54 C97.29 91.26, 121.37 63.46, 174.07 -2 M71.02 120.42 C94.17 93.06, 117.81 65.14, 174.92 -0.74 M78.27 120.68 C102.53 93.18, 125.27 66.56, 181.07 1.95 M77.2 118.5 C114.43 74.69, 152.52 31.13, 179.86 0.88 M80.37 120.42 C110.64 88.17, 136.03 58, 186.65 0.89 M81.56 120.76 C105.23 92.99, 128.92 66.12, 186.62 -0.86 M87.68 118.59 C127.5 75.74, 165.81 28.1, 191.84 -1.59 M86.78 118.99 C112.78 91.72, 138.31 61.37, 190.37 0.95 M93.39 118.93 C123.53 80.53, 161.77 39.73, 195.18 1.55 M91.34 120.68 C130.99 73.13, 171.78 27.79, 195.56 -0.9 M98.68 118.06 C131.63 79.38, 166.39 36.92, 200.47 0.84 M97.76 118.44 C121.5 92, 145.65 64.86, 200.78 0.76 M104.48 121.64 C142.15 72.5, 185.39 25.38, 208.9 0.37 M103.41 120.52 C129.69 88.72, 155.06 58, 206.95 -1.08 M106.96 119.09 C137.52 84.79, 169.29 51.44, 210.75 1.85 M108.13 120.96 C142.93 77.32, 179.45 36.71, 212.17 0.89 M112.53 120 C143.24 85.17, 174.26 48.16, 217.62 -1.34 M112.29 120.39 C139.55 88.22, 166.69 56.74, 217.96 -0.3 M118.79 120.35 C155.72 76.42, 195.6 32.04, 222.05 -0.07 M117.83 119.69 C138.71 95.48, 158.33 71.56, 222.06 0.68 M124.05 119.39 C151.78 85.66, 178.3 54.9, 229.76 0.6 M122.92 119.21 C145.69 93.79, 166.28 68.63, 228.72 -1.18 M129.05 121.67 C160.34 80.94, 198.52 42.08, 231.33 1.48 M129.74 120.31 C165.48 77.24, 202.78 35.43, 233.43 -0.7 M135.12 121.09 C158.27 90.54, 177.97 65.56, 237.69 0.06 M133.74 119.71 C173.62 75.23, 213.13 31.17, 238.63 -0.3 M137.88 119.02 C169.34 83.75, 199.99 49.51, 243.14 -1.18 M139.4 119.07 C181.25 72.22, 222.84 24.34, 243.7 0.69 M145.43 120.28 C178.59 83.65, 208.92 46.56, 250.31 -0.45 M145.59 119.39 C166.57 92.65, 189.01 66.13, 248.06 -0.2 M152.02 119.29 C172.01 93.18, 194.08 70.75, 255.65 0.15 M149.26 120.51 C174.34 91.71, 198.72 62.86, 253.76 0.6 M156.25 120.05 C186.04 84.24, 217.08 43.56, 259.16 0.73 M156.8 119.56 C185.84 85.1, 216.84 50.42, 259.32 0.17 M162.77 118.28 C200.29 74.7, 242.56 24.94, 266.59 -0.4 M161.75 120.46 C184.41 92.19, 206.29 65.76, 264.94 -0.43 M164.45 121.41 C195.69 87.58, 223.62 53.81, 271.05 -0.57 M166.13 120.34 C199.53 84.06, 230.9 45.54, 270.34 -0.64 M172.07 118.69 C213.22 74.47, 252.58 29.47, 275.3 -0.8 M172.23 119.05 C195.16 93.79, 217.92 68.33, 276.02 -0.04 M176.5 121.24 C204.4 86.12, 234.36 51.32, 281.36 0.38 M177.83 119.62 C206.09 86.76, 234.34 53.86, 281.03 -0.77 M182.42 120.12 C209.38 88.13, 240.69 52.74, 284.73 -1.12 M182.04 119.71 C217.15 79.76, 254.31 37.96, 286.25 -1.12 M186.46 118.36 C217.2 85.86, 243.05 55.1, 292.07 -0.78 M188.55 120.11 C225.43 74.06, 261.91 32.49, 292.21 -0.04 M190.92 121.08 C214.71 91.82, 236.55 69.26, 295.39 -1.52 M193.45 120.17 C217.42 93.07, 239.02 66.69, 296.32 -0.71 M197.97 119.49 C221.67 94.27, 240.93 69.24, 301.74 0.49 M198.44 120.3 C223.31 89.83, 249.73 60.06, 302.69 1 M203.29 120.99 C232.87 85.25, 262.82 50.66, 307.4 -0.25 M202.7 119.44 C237.63 80.08, 270.35 42.89, 307.38 -1.09 M210.29 121.24 C243.86 82.76, 274.9 45.49, 311.56 -0.36 M208.08 119.49 C246.34 75.85, 283.13 32.68, 312.21 0.1 M215.8 118.19 C237.97 94.57, 260.63 68.54, 318.49 0.34 M212.97 118.84 C238.59 92.53, 262.43 65.22, 318.02 -0.72 M220.25 120.15 C245.36 89.36, 272.09 57.43, 323.27 1.03 M219.51 118.77 C243.53 92.86, 265.92 67.62, 322.47 0.32 M225.34 119.89 C254.05 87.58, 282.89 53.74, 329.95 -0.19 M225.4 118.99 C263.76 75.64, 302.07 30.78, 329.31 -1.29 M227.62 119.4 C267.22 79.25, 302.05 37.48, 333.24 -0.09 M230.55 120.78 C265.05 80.02, 298.34 40.01, 334.14 1.01 M235.4 120.24 C275.58 72.39, 316.96 22.98, 340.7 1.63 M236.09 118.79 C265.71 86.06, 297.95 49.05, 339.74 -0.67 M239.76 119.83 C276.17 80.49, 308.02 40.95, 346.41 0.47 M240.47 119.71 C268.7 88.02, 295.7 55.56, 343.81 0.81 M246.05 118.28 C269.71 90.99, 297.2 60.58, 348.56 -0.08 M245.07 120.47 C285.45 74.07, 324.94 28.35, 349.62 0.81 M249.62 118.43 C272.83 90.97, 296.95 63.97, 354.33 1.77 M251 120.78 C290.82 72.7, 333.01 25.66, 355.05 0.67 M255.96 119.95 C290.91 79.27, 322.78 41.86, 358.95 -1.56 M257.35 120.52 C292.71 76.6, 331.01 33.68, 360.67 0.37 M260.42 119.36 C292.16 85.29, 317.79 51.14, 365.14 -0.21 M262 120.27 C298.56 78.77, 334.27 37.68, 365.37 0.82 M268.38 120.12 C298.72 87.13, 325.62 54.04, 370.88 1.15 M267.88 118.75 C303.76 76.94, 340.19 34.31, 371.11 0.27 M270.96 120.68 C310.72 75.72, 347.87 32.31, 377.55 1.42 M271.77 119.27 C307.11 78.35, 343.53 37.35, 377.23 -0.19 M277.18 120.55 C302.66 92.86, 326.91 62.35, 381.64 -0.88 M278.57 119.25 C301.76 91.47, 327.06 63.07, 381.24 -0.18 M281.65 120.36 C308.42 91.63, 329.94 61.97, 386.9 -1.55 M282.07 120.64 C313.27 85.14, 344.55 50.89, 387.07 -0.54 M288.79 119.9 C313.9 90.27, 340.92 61.03, 392.09 1.36 M289.26 119.42 C319.74 82.09, 352.08 45.6, 391.86 1.13 M292.48 118.25 C320.69 86.52, 349.38 58.32, 399.11 1.59 M293.09 120.06 C319.81 90.17, 347.26 58.8, 398.25 -0.09 M300.27 119.76 C337.44 75.8, 377.41 28.56, 400.7 0.77 M298.77 118.96 C320.69 95.89, 341.75 71.16, 403.17 0.1 M305.05 118.15 C334.14 84.86, 363.11 50.09, 408.68 -1.56 M304.52 118.98 C345.59 71.84, 387.51 23.91, 408.09 0.59 M309.25 118.59 C338.52 87, 368.23 53.77, 413.54 0.16 M309.87 118.86 C347.38 73.86, 387.82 28.44, 413.85 -0.57 M316.53 121.74 C351.6 75.12, 389.64 33.55, 420.71 -0.49 M314.46 119.68 C341.99 88.16, 368.5 57.55, 418.89 -0.79 M319.96 117.8 C347.15 88.39, 369.92 62.48, 422.24 -1.76 M320.27 118.39 C344.3 93.75, 368.29 65.06, 424.05 -0.38 M325.7 118.6 C351.98 92.71, 376.75 63.5, 428.92 0.23 M324.48 120.22 C352.78 90.52, 379 61.4, 428.86 -1.19 M329.22 119.66 C360.77 83.97, 393.03 49.38, 434.06 -0.37 M331.65 120.15 C368.76 75.43, 404.98 30.61, 434.33 -0.03 M334.94 120.24 C361.68 91.11, 386.85 60.36, 441.59 -1.1 M336.6 119.44 C374.66 75.56, 414.45 31.33, 439.2 0.7 M339.79 118.14 C370.95 86.39, 399.42 51.03, 445.83 0.87 M339.96 119.78 C376.94 80.29, 413.36 38.06, 444.75 -0.44 M348.2 118.05 C369.53 92.9, 393.11 65.21, 451.61 -1.22 M346.29 120.01 C378.75 83.55, 410.76 47.77, 451.05 -0.51 M353.01 121.84 C378.72 86.68, 407.87 56.71, 453.99 0.38 M351.1 119.93 C385.74 79.72, 421.71 38.6, 455.78 0.29 M357.05 121.35 C397.42 74.65, 440 24.71, 462.45 -2.02 M357.5 119.38 C388.64 86.29, 418.27 49.62, 460.49 0.09 M362.81 120.51 C393.55 85.64, 423.91 50.36, 464.56 0.51 M361.95 119.84 C388.21 88.2, 416.54 56.5, 467.38 -0.16 M366.63 119.35 C398.96 88.01, 427.02 52.33, 469.54 0.32 M367.59 118.79 C398.13 84.91, 427.45 52.23, 470.92 -0.52 M372.4 120.09 C408.68 79.27, 447.98 32.88, 475.17 1.5 M371.98 119.28 C398.67 89.09, 424.9 60.1, 477.94 0.69 M377.7 119.17 C400.03 92.06, 426.5 63.87, 480.85 2.23 M378.4 120.29 C418.67 73.73, 459.16 26.58, 482.65 0.64 M383.56 121.38 C419.85 82, 455.86 41.17, 489.03 -0.49 M383.62 120.31 C420.82 75.06, 459.34 32.05, 487.3 -0.87 M388.59 119.84 C412.99 93.8, 433.79 67.39, 490.99 -0.68 M389.21 119.72 C429.35 72.8, 471.58 24.67, 491.97 0.13 M394.69 118.13 C419.02 93.71, 443.71 63.17, 496.95 0.6 M393.28 120.31 C427.04 82.32, 460.01 43.39, 497.78 0.22 M401.23 118.3 C426.68 85.66, 457.49 51.66, 501.82 1.36 M399.78 119.72 C428.86 83.43, 458.87 50.66, 502.78 0.05 M402.76 118.97 C431.14 87.01, 459.28 57.06, 507.33 -1.28 M404.29 118.93 C438.07 82.57, 472.13 43.67, 509.13 0.84 M411.16 119.38 C446.08 79.32, 476.47 44.15, 515.78 -0.99 M409.29 118.72 C443.92 80.75, 475.67 41.63, 512.95 -0.19 M413.36 121.45 C439.6 87.78, 466.33 59.9, 520.17 1.76 M415.94 119.14 C438.54 90.76, 463.7 60.59, 519.56 0.66 M421.49 117.83 C443.57 92.31, 469.54 65.77, 525.91 1.84 M421.39 119.96 C454.87 78.87, 488.19 40.3, 525.28 1.08 M426.63 118.01 C448 94.61, 471.4 66.99, 529.04 1.49 M426.49 120.18 C453.37 89.56, 480.91 56.49, 530.73 -0.85 M432.94 120.3 C453.94 91.32, 477.51 66.37, 533.86 0.35 M431.17 118.47 C452.94 93.54, 475.27 68.02, 534.55 0.87 M435.36 118.01 C472.95 77.47, 510.2 34.59, 539.15 -0.41 M436.14 120.62 C477.04 72.84, 519.21 25.89, 540.75 0.57 M441.81 119.36 C471.39 89.08, 500.42 53.22, 543.85 -0.09 M442.2 120.06 C471.92 86.04, 501.19 50.87, 546.46 0.45 M446.88 121.71 C475.81 86.84, 502.37 53.04, 553.26 1.65 M448.03 119.3 C488.92 71.93, 530.28 25.67, 551.2 -1.02 M454.01 119.47 C483.94 85.08, 510.22 51.86, 556.71 -1.18 M453.48 118.37 C485.04 82.82, 517.23 44.69, 556.68 0.41 M457.16 118.28 C493.55 78.86, 529.86 35.88, 561.75 -0.82 M457.29 120.36 C481.66 93.75, 504.53 65.26, 562.09 -0.77 M462.38 119.75 C493.65 83.72, 530.4 44.23, 567.85 -1.72 M461.8 120.57 C485.34 90.52, 510.76 62.36, 567.85 -0.36 M468.73 119.8 C489.44 96.09, 511.21 68.66, 572.57 -0.43 M467.96 120.25 C490.61 94.46, 512.96 70.26, 572.91 -0.01 M475.31 120.98 C512.9 74.47, 552.32 29.44, 577.28 0.4 M473.4 119.36 C503.34 83.56, 534.68 48.19, 578.53 0.31 M480.73 119.24 C502.19 92.67, 527.01 66.19, 584.64 0.89 M478.07 118.72 C508.03 88.03, 534.16 55.22, 582.91 -0.54 M482.84 120.08 C505.58 92.65, 527.02 67.45, 587.61 -1.82 M484.99 120.52 C516 83.45, 548.65 45.81, 588.25 0.89 M490.89 120.5 C530.08 75.17, 569.74 28.96, 592.41 -1.16 M490.57 119.79 C517.27 89.25, 544.51 57.84, 592.81 -0.63 M493.24 121.16 C525.19 84.09, 556.54 48.45, 598.05 1.55 M495.38 120.85 C533.33 74.37, 573.81 30.68, 598.51 -0.84 M501.53 120.37 C528.17 89.32, 550.2 62.16, 603.98 1.3 M500.4 118.8 C531.62 84.8, 561.26 47.28, 603.76 0.53 M506.38 118.21 C536.35 82.36, 567.07 45.97, 610.37 -0.67 M505.84 119.96 C543.15 78.27, 577.66 36.97, 609.73 -0.82 M509.57 118.54 C533.93 92.2, 554.36 68.41, 613.69 -0.7 M511.42 119.38 C550.7 70.74, 592.3 24.82, 615.07 0.77 M515.73 121.13 C558.38 70.31, 600.19 22.34, 618.97 1.25 M515.11 119.26 C555.47 74.4, 596.55 29.1, 620.3 0.32 M520.52 119.63 C545.89 93.88, 571.14 64.52, 623.46 1.77 M521.46 120.46 C542.66 94.33, 565.21 69.58, 624.48 0.74 M526.35 121.73 C561.03 82.73, 594.65 43.44, 632.82 -0.05 M526.35 118.95 C547.67 93.25, 569.85 67.64, 631.56 0.24 M530.5 119.14 C561.17 82.92, 593.73 47.39, 636.82 1.55 M531.3 119.26 C564.34 82.85, 598.1 44.34, 635.16 0.87 M536.88 119.72 C569.52 81.41, 605.42 41.68, 641.51 0.97 M536.2 119.01 C563.45 89.05, 589.65 57.88, 640.82 -0.1 M544.18 117.49 C576.23 81.59, 609.97 41.16, 644.9 1.39 M543.67 120.31 C577.72 80.3, 613.13 38.82, 646.78 0.39 M549.57 120.74 C575.54 92.09, 600.64 61, 653.19 0.76 M547.75 120.26 C577.78 83.37, 608.13 49.34, 652.31 0.55 M552.87 118.02 C586.07 80.45, 619.96 43.83, 656.41 -0.06 M554.25 118.42 C576.02 94.4, 599.41 67.62, 656.44 0.33 M560.27 118.29 C584.6 89.6, 610.13 57.97, 664.64 0.68 M557.52 119.28 C600.65 73.15, 643.14 23.87, 662.25 -1.24 M564.46 120.94 C602.59 73.85, 640.79 26.9, 667.66 1.76 M564.7 119.7 C597.17 80.65, 630.76 44.43, 667.67 0.52 M568.4 119.83 C595.09 88.89, 620.21 60.87, 675.2 0.99 M568.52 119.45 C592.6 92.77, 616.73 67.71, 673.77 -0.64 M572.77 118.15 C606.29 84.93, 634.52 51.7, 676.55 -0.68 M574.94 119.33 C608.65 80.02, 644.84 38.52, 677.5 0.58 M578.99 120.69 C608.8 83.74, 639.55 52.35, 684.82 -1.14 M579.18 119.97 C611.33 84.07, 641.4 49.46, 684 0.5 M586.18 120.19 C623.9 72.89, 662.48 30.22, 688.57 -1.01 M584.82 119.51 C608.69 93.55, 632.57 65.25, 689.38 0.93 M588.67 118.11 C629.24 76.04, 671.08 30.75, 696.05 -1.63 M590.4 118.82 C623.79 82.47, 656.81 44.29, 695 0.63 M593.7 118.76 C636.92 73.08, 676.68 27.23, 698.82 -0.96 M595.2 120.99 C620.54 91.21, 646.49 61.04, 700.23 -0.21 M599.64 121.26 C629.44 88.79, 656.23 59.28, 703.36 1.24 M600.54 119.77 C630.95 84.76, 661.14 49.85, 704.11 0.23 M605.6 121.71 C632.26 91.73, 654.47 64.28, 709.97 -0.34 M605.53 119.07 C634.98 88.11, 661.35 56.62, 709.4 0.16 M609.71 121.18 C636.85 88.54, 662.54 59.63, 713.8 1.85 M612.38 119.4 C650.59 74.88, 690.11 31.31, 715.62 -0.15 M614.74 119.81 C643.54 87.62, 675.33 52.98, 722.31 0.94 M616.2 119.36 C650.62 80.45, 684.74 40.78, 721.72 0.87 M622.3 120.85 C654.4 79.58, 689.61 39.52, 725.04 1.77 M622.2 120.08 C643.4 94.28, 665.31 66.63, 725.8 -0.43 M626.55 120.73 C669.15 75.08, 709.1 26.07, 731.71 0.88 M627.57 120.75 C654.03 88.21, 681.93 54.97, 732.46 -0.49 M632.38 121.13 C667.88 79.66, 703.92 39.25, 737.98 0.67 M632.7 118.99 C658.22 88.4, 684.98 59.04, 736.51 1.01 M637.09 119.04 C671.62 76.79, 710.63 38.2, 743.62 1.38 M636.97 120.43 C664.87 86.61, 693.19 54.88, 742.34 -0.5 M644.56 118.8 C683.89 77.73, 720.39 30.12, 746.16 -0.82 M644.04 119.09 C683.03 75.69, 722.08 29.32, 747.59 1.1 M646.98 118.22 C671.84 95.63, 689.85 70.1, 749.8 -0.25 M647.64 118.9 C683.49 76.82, 720.76 35.57, 751.23 0.54 M655.01 120.55 C686.32 83.17, 716.87 45.68, 751.1 8.35 M654.84 120.14 C683.39 85.94, 711.85 52.64, 751.25 8.63 M659.47 120.66 C689.77 85.7, 719.71 50.39, 753.02 12.77 M659.81 118.94 C680.16 94.72, 703.05 68.98, 751.89 13.68 M665.51 120.97 C696.44 80.46, 734.03 40.29, 752.13 21.57 M665.16 119.71 C696.84 83.25, 727.08 48.06, 750.85 19.08 M670.36 121.65 C700.41 84.47, 730.24 50.37, 752.72 23.5 M669.65 120.64 C697.32 89.85, 723.4 59.78, 752.58 25.16 M673.44 120.56 C700.96 87.13, 729.02 56.03, 752.49 33.65 M675.53 120.15 C700.44 91.84, 725.32 62.57, 752.01 32.75 M682.09 119.39 C697.53 99.75, 715.07 78.82, 752.08 38.22 M680.29 120.37 C700.47 96.76, 719.66 74.22, 751.2 38.32 M685.1 120.46 C704.73 96.9, 729.13 71.13, 752.05 44.82 M685.27 120.36 C700.75 102.76, 714.79 86.66, 752.37 43.75 M689.66 120.99 C707.4 103.17, 721.98 82.82, 751.84 50.85 M690.78 119.82 C705.13 101.8, 720.58 83.48, 752.03 51.04 M696.35 121.49 C715.32 98.11, 732.93 74.49, 753.29 54.21 M696.11 119.8 C708.71 105.69, 721.93 90.36, 752.53 56.5 M702.67 120.47 C718.27 99.63, 732.07 83.95, 752.37 61.48 M701.18 118.95 C716.74 102.52, 730.76 85.48, 750.87 63.26 M706.71 118.6 C714.84 108.39, 725.97 98.42, 750.65 70.63 M707.29 119.96 C719.08 105.64, 731.83 91.63, 750.36 69.45 M711.33 120.73 C721.94 106.04, 732.61 96.88, 750.3 75.37 M711.45 119.04 C723.68 106.79, 736.29 93.23, 750.62 74.96 M715.9 119.93 C726.11 109.92, 737.78 95.89, 751.08 79.5 M717.13 120.4 C729.7 105.06, 743.43 89.36, 750.69 81.12 M724.43 119.6 C730.21 113.28, 736.86 106.36, 751.84 85.67 M722.54 119.66 C730.53 110.7, 737.42 102.76, 751.63 85.92 M729.28 121.51 C735.71 114.75, 741.78 106.59, 752.21 93.45 M727.43 120.44 C736.09 110.2, 744.08 101.2, 752.31 93.54 M735.35 119.82 C737.69 115.47, 740.31 109.76, 750.14 100.18 M733.34 119.68 C737.91 113.61, 743.53 108.31, 752.03 99.48 M739.77 121.25 C741.22 116.28, 749.5 109.16, 750.87 103.24 M738.42 120.23 C740.79 115.55, 745.46 113.28, 751.61 104.33 M744.1 119.24 C745.93 116.65, 748.8 112.17, 750.56 111.85 M743.88 119.91 C745.99 117.13, 747.42 115.1, 751.38 110.81" stroke="#ced4da" stroke-width="0.5" fill="none"></path><path d="M-0.05 -0.37 C207.72 -1.72, 415.72 -1.31, 750.2 -0.61 M0.21 0.29 C204.45 1.3, 409.26 0.57, 749.84 0.13 M750.84 -1.87 C752.46 41.36, 750.12 80.14, 749.26 118.23 M749.16 -0.24 C751.07 42.36, 751.15 83.64, 749.49 117.75 M750.1 118.04 C478.14 114.78, 205.03 116.05, 0.42 118.05 M750.23 117.81 C578.7 119.67, 407.08 119.79, 0.22 118.31 M1.64 116.12 C0.27 80.39, -2.9 40.06, 1.51 -1.77 M-0.82 117.89 C-1.35 78.54, -0.85 41.84, 0.91 0.31" stroke="#000000" stroke-width="1" fill="none"></path></g><g stroke-linecap="round" transform="translate(13 68.5) rotate(0 99 58.5)"><path d="M0 0 C0 0, 0 0, 0 0 M0 0 C0 0, 0 0, 0 0 M-0.42 6.46 C1.93 3.82, 2.93 2.63, 5.66 0.67 M-0.52 6.79 C1.87 4.27, 3.78 2.14, 4.95 0.57 M0.44 13.13 C3.01 5.99, 9.43 4, 10.87 0.7 M0.06 12.76 C2.65 8.81, 6.37 5.03, 11.28 -0.69 M-0.31 18.09 C2.71 12.91, 9.16 9.68, 17.35 -0.65 M-0.62 19.37 C4.84 15.01, 6.89 9.37, 15.22 0.38 M-0.82 23.93 C5.97 20.36, 8.7 13.18, 19.49 -0.92 M1.27 24.41 C6.38 17.09, 10.08 11.69, 21.26 -0.04 M0.54 29.61 C8.86 21.64, 18.82 8.18, 26.64 -1.6 M-0.57 31.28 C8.47 20.65, 16.26 12.53, 25.39 1.06 M-0.87 38.81 C12.73 22.81, 22.64 9.41, 33.14 -1.67 M0.26 36.43 C6.28 28.29, 15.38 20.94, 30.99 0.61 M-1.75 43.49 C8.41 33.67, 14.06 24.84, 35.22 -0.4 M0.29 41.85 C9.33 32.19, 19.66 20.48, 36.15 0.36 M1.24 48.98 C17.27 31.8, 32.08 15.01, 44.28 1.49 M0.67 48.34 C16.62 30.03, 31.44 10.68, 42.43 -1.13 M0.09 53.73 C15.06 36.23, 32.78 15.86, 47.7 -1.13 M-0.7 54.29 C16.56 36.44, 30.75 20.48, 48.07 0.63 M0.32 62.22 C15.07 41.22, 33.84 22.18, 54.18 1.03 M-0.04 60.72 C14.49 45.36, 27.25 28.97, 52.68 -0.02 M1.57 68.67 C15.92 47.66, 31.98 28.48, 58.55 0.73 M0.45 68.03 C21.95 39.86, 46.02 14.91, 58.5 0.22 M1.74 74.19 C15.75 55.69, 25.99 42.71, 63.06 1.01 M1.05 73.32 C19.32 51.44, 38.35 30.06, 63.09 -0.4 M-0.94 78 C25.59 51.2, 49.28 19.98, 70.19 0.27 M0.01 78.66 C20.56 57.5, 38.07 33.24, 68.59 0.39 M-1.22 83.1 C30.56 52.87, 58.06 20.75, 76.01 -0.92 M0.65 84.86 C24.78 55.51, 48.68 28.12, 74.37 -1.13 M-0.09 91.24 C26.08 58.95, 55.81 27.35, 78.93 1.2 M-0.45 91.52 C22.19 66.5, 43.5 41.51, 80.3 0.39 M-2.04 96.54 C19.6 76.92, 37.38 55.4, 85.05 0.48 M-0.38 98.78 C24.78 68.61, 50.31 41.01, 85.47 -0.63 M-1.01 104.76 C23.39 77.96, 44.07 54.97, 88.97 1.81 M-0.39 103.62 C32.03 64.77, 65.05 27.52, 89.37 0.39 M-0.3 110.42 C34.64 73.32, 65.44 34.74, 95.1 0.05 M0.59 109.17 C29.6 73.83, 61.26 38.77, 96.67 0.14 M0.1 116.52 C26.36 83.64, 55.71 54.4, 102.45 0.99 M0.02 115.44 C25.67 86.04, 49.44 58.58, 100.36 0.54 M2.96 120.47 C34.68 82.05, 66.82 42.66, 105.98 0.23 M3.62 119.36 C26.31 92.34, 49.87 66.06, 106.53 -1.33 M9.16 119.79 C41.65 79.11, 76.05 39.4, 109.38 0.21 M8.14 119.6 C38.6 84.01, 68.08 47.23, 111.59 -0.08 M13.87 117.28 C45.48 80.13, 81.47 39.39, 117.77 1.8 M13.88 119.83 C37.42 93.9, 58.26 68.15, 116.28 0.66 M17.83 118.24 C47.17 85.97, 74.07 50.21, 121.71 1.55 M17.45 119.01 C56.63 72.02, 96.71 24.88, 122.21 -0.41 M23.4 119.09 C57.49 83.28, 88.39 44.62, 127.41 -1.13 M24.19 118.13 C47.08 92.59, 68.09 66.65, 127.37 0 M29.35 118.39 C55.18 86.68, 85.39 55.24, 131.28 1.68 M28.39 118.29 C59.19 82.55, 91.63 46.28, 133.16 -0.46 M34.24 117.7 C74.99 69.5, 115.76 25.9, 138.8 1.41 M35.04 119.69 C70.04 78.67, 103.38 39.02, 136.62 0.28 M39.14 120.58 C64.24 89.36, 91.22 60.84, 143.82 1.86 M40 119.71 C69.13 82.91, 100.45 48.35, 144.16 -0.28 M47.02 117.49 C75.59 86.1, 103.86 52.55, 147.38 2.22 M45.74 117.9 C82.04 75.46, 120.39 31.25, 147.78 0.82 M49.51 120.74 C88.71 76.33, 128.54 31.22, 153 -2.06 M49.58 120.02 C85.99 77.91, 121.53 35.39, 154.75 -0.96 M53.61 118.2 C84.38 87.02, 112.5 54.74, 157.51 -0.29 M54.72 119.85 C88.34 82.4, 121.74 43.55, 157.9 0.37 M59.71 120.41 C91.74 85.85, 117.83 53.5, 166.37 -1.62 M61.75 119.42 C90.85 83.74, 121.26 48.99, 165.25 0.35 M65.75 117.89 C88.22 96.35, 109.23 70.15, 168.46 -0.12 M65.17 120.34 C95.18 85.24, 124.67 51.39, 170.33 0.14 M71.86 120.7 C92.96 92.78, 113.49 67.34, 175.4 -1.8 M71.43 118.55 C104.87 82.51, 138.41 43, 175.79 -0.53 M77.14 119.48 C115.37 75.12, 151.02 34.64, 180.38 -1.69 M76.13 119.36 C111.33 78.87, 147.75 36.6, 179.71 0.79 M81.02 120.32 C105.48 94.3, 131.59 65.99, 185.46 1.06 M82.81 119.5 C105.29 91.48, 131.54 62.23, 185.28 0.16 M88.02 117.74 C121.04 83.94, 151.11 44.76, 192.36 -1.81 M86.09 120.12 C116.22 84.8, 144.84 51.7, 191 -0.57 M93.12 117.59 C116.73 91.25, 145.04 61.73, 197.82 1.18 M92.42 118.84 C117.35 91.86, 139.51 65.73, 196.44 -0.86 M98.54 118.02 C129.26 83.27, 163.46 43.33, 199.06 1.8 M97.31 118.77 C128.15 84.91, 157.78 50.45, 199.12 2.15 M103.04 120.4 C137.74 76.56, 173.32 37.51, 200.46 9.69 M104.04 118.56 C129.52 88.61, 158.83 56.66, 199.57 7.37 M106.76 118.27 C136.2 88.14, 167.05 55.29, 199.5 14.57 M108.88 119.42 C128.46 93.92, 151.18 68.59, 200.72 13.02 M112.52 120.26 C148.34 82.22, 182.2 42.31, 200.4 19.47 M113.79 119.14 C148.51 80.71, 182.33 42.73, 199.91 19.96 M118.64 119.04 C144.1 90.54, 166.48 65.79, 198 24.65 M119.66 119.13 C149.02 84.06, 181.54 49.91, 200.18 26.71 M124.25 118.24 C145.05 94.37, 167.81 70.21, 201.92 32.77 M125.05 118.47 C150.66 88.33, 176.65 58.22, 200.85 32.71 M130.07 117.45 C158.45 87.5, 183.94 57.54, 198.58 40.1 M129.34 118.91 C149.54 94.15, 170.65 70.8, 198.94 38.63 M135.78 119.04 C151.93 99.6, 167.59 79.1, 201.92 42.18 M135.52 118.93 C155.13 95.8, 175.62 74.73, 200.3 44.14 M140.8 117.23 C159.54 95.76, 179.73 73.82, 200.17 48.81 M139.36 118.74 C161.74 95.24, 182.07 70.29, 199.77 49.93 M145.61 116.93 C165.21 93.22, 187.65 70.5, 198.55 57.67 M146.18 118.33 C160.1 104.02, 173.7 89.06, 200.3 57.49 M152.54 118.72 C159.69 105.8, 172.21 93.53, 201.3 61.54 M150.01 118.52 C160.51 106.95, 171.39 96.6, 200.39 63.43 M155.12 117.78 C169.54 99.94, 187.15 84.86, 199.85 69.51 M156.34 118.95 C170.58 102.57, 185.66 86.15, 200.66 68.7 M162.87 120.83 C173.06 105.09, 186.27 91.05, 201.39 74.62 M161.33 119.14 C172.75 106.4, 183.95 92.93, 199.83 75.42 M165.95 117.81 C173.56 109.76, 180.75 104.72, 201.77 82.84 M165.9 119.26 C177.87 107.24, 189.14 93.25, 200.01 81.9 M171.28 119.07 C178.32 108.71, 190.29 102.2, 198.09 88.74 M172.19 119.41 C181.04 106.83, 192.16 95.06, 198.74 87.4 M176.61 118.57 C184.62 110.68, 195.41 100.64, 200.84 92.65 M177.07 119.94 C185.11 108.47, 194.37 99.07, 199.46 93.43 M181.18 119.55 C185.92 114.23, 190.94 111.24, 199.96 99.92 M183.24 119.13 C189.57 111.77, 195.36 105.51, 199.06 100.05 M188.5 117.57 C192.78 113.35, 194.97 107.55, 199.54 106.44 M187.39 119.36 C191.25 115.09, 194.66 112.78, 200.85 105.57 M193.6 120 C196.12 116.49, 197.52 115.03, 200.18 110.76 M193.63 119.53 C195.56 116.35, 197.32 114.45, 199.46 111.13" stroke="#fa5252" stroke-width="0.5" fill="none"></path><path d="M1.49 -0.15 C59.36 1.78, 117.03 -0.33, 198.76 1.66 M-0.1 0.1 C70.19 0.87, 141.75 1.09, 197.42 0.79 M199.8 1.38 C196.81 37.47, 197.05 77.21, 196.22 115.45 M197.55 0.05 C197.86 46.01, 198.7 92.45, 197.91 117.11 M196.47 115.32 C118.85 116.98, 42.49 115.99, -1.32 117.06 M198.69 117.76 C144.93 114.36, 90.67 115.56, -0.42 116.2 M0.45 116.79 C-0.16 85.31, -0.47 53.73, 1.47 -1.36 M-0.82 116.64 C1.29 87.13, 1.87 56.72, 0.06 0.71" stroke="#000000" stroke-width="1" fill="none"></path></g><g transform="translate(79.5 109.5) rotate(0 32.5 17.5)"><text x="32.5" y="25" font-family="Virgil, Segoe UI Emoji" font-size="28px" fill="#000000" text-anchor="middle" style="white-space: pre;" direction="ltr">Jobs</text></g><g stroke-linecap="round" transform="translate(219.5 69) rotate(0 98.5 58.5)"><path d="M0 0 C0 0, 0 0, 0 0 M0 0 C0 0, 0 0, 0 0 M-1.04 6.32 C0.9 4.04, 3.05 2.81, 4.8 0.48 M0.11 6.25 C0.67 5.01, 2.44 3.38, 4.78 0.63 M0.84 13.36 C4.62 9.66, 7.69 6.02, 10.49 1.24 M-0.29 11.34 C2.5 8.35, 5.61 6.95, 10.49 -0.11 M-1.27 18.95 C4.29 12.31, 8.66 9.11, 14.69 -1.62 M-0.27 19.41 C4.55 14.01, 8.28 8.39, 16.47 0.48 M2.23 22.23 C9.04 16.63, 14.76 5.88, 22.47 -0.16 M0.05 23.73 C5.43 17.49, 11.6 11.17, 21.01 0.84 M-1.28 30.4 C10.08 20.02, 21.09 8.96, 27.5 1.7 M0.78 30.94 C10.14 19.65, 18.57 8.31, 27.04 1.09 M-1.99 38.63 C10.25 24.97, 22.42 10.12, 33.32 1.71 M0.39 37.45 C9.61 24.27, 21.62 11.4, 32.63 -0.51 M-1.43 41.53 C10.03 32.68, 16.72 22.29, 38.07 0.51 M-0.86 41.6 C7.87 32.84, 17.26 22.54, 36.23 -0.49 M-0.33 50.4 C9.87 38.17, 17.55 29.62, 43.83 0.61 M-0.46 48.9 C11.73 34.53, 24.2 21.1, 43.38 -0.19 M1.98 52.88 C13.82 40.11, 27.4 22.55, 49.42 -0.71 M0.45 54.82 C15.53 37.83, 28.39 21.05, 47.89 -0.67 M0.45 61.9 C12.1 47.08, 24.54 32.76, 51.73 -0.44 M0.26 61.85 C21.33 36.87, 41.21 12.95, 52.62 -0.75 M0.9 67.36 C19.34 45.09, 43.06 20.83, 58.5 -0.89 M-1.02 68.24 C17.74 46.69, 37.13 24.96, 58.64 0.1 M0.15 73.32 C19.72 48.97, 41.5 25.58, 65.66 1.19 M0.73 73.3 C16.04 56.6, 29.36 38.78, 64.01 -0.3 M0.14 81.21 C26.51 52.7, 47.73 22.92, 70.14 -0.36 M-0.74 79.68 C19.53 57.14, 40.04 32.55, 68.94 0.31 M-1.49 83.47 C28.68 53.11, 55.49 18.82, 75.16 1.71 M0.96 85.16 C26.17 54.48, 51.89 25.61, 74.52 0.52 M-0.52 90.52 C24.33 62.07, 52.13 33.41, 79.08 1.13 M-0.84 90.68 C26.16 60.62, 52.63 30.13, 79.99 0.42 M0.48 96.47 C20.85 77.34, 36.5 52.27, 84.68 0.93 M-0.91 98.1 C32.87 58.83, 66.52 20.36, 85.4 -0.49 M-1.76 102.23 C22.21 78.78, 46.68 53.26, 91.99 -1.54 M-0.51 102.49 C26.1 74.29, 50.91 45.32, 90.85 -0.17 M0.89 108.8 C29.53 73.23, 57.37 40.17, 95.59 0.25 M-0.97 109.44 C21.68 84.57, 43 60.45, 95.2 -0.08 M0.64 116.87 C25.82 87.31, 53.28 56.64, 101.42 -0.95 M0.38 115.79 C22.75 90.75, 44.16 66.17, 101.33 -0.1 M1.17 120.78 C30.11 91.59, 54.97 61.01, 108.13 0.67 M2.12 119.7 C41.2 71.79, 81.85 24.64, 106.78 -0.54 M9.05 118.24 C47.27 77.42, 85.02 31.79, 111.83 0.97 M7.45 119.43 C46.39 77.31, 82.09 35.31, 111.05 0.94 M13.88 119.52 C35.94 92.48, 62.49 63.89, 114.82 1.53 M12.8 118.62 C35.57 94.15, 58.74 69.23, 115.61 0.06 M19.57 120.6 C56.61 71.06, 97.91 29.52, 121.61 -1.16 M18.48 118.55 C58.66 71.6, 97.91 25.76, 122.44 -0.79 M24.41 119.85 C46.46 90.03, 72.48 61.95, 125.05 -0.5 M23.18 118.93 C58.51 78.55, 93.94 38.49, 127.47 -0.2 M27.87 121.02 C67.62 73.66, 103.57 31.79, 133.01 1.88 M28.18 119.95 C64.78 79.74, 97.6 38.58, 131.71 -0.06 M33.91 118.12 C56.5 91.78, 80.01 66.59, 139.15 -0.89 M35.04 119.29 C75.01 72.09, 113.35 26.53, 137.42 0.53 M37.8 118.41 C79.51 72.4, 119.14 26.77, 142.24 -0.06 M39.86 118.17 C66.53 88.32, 92.2 58.23, 143.87 0.28 M45.44 119.29 C75.92 81.61, 107.72 46.99, 149 -0.26 M44.96 118.32 C76.4 83.53, 106.39 47.31, 147.51 -0.24 M52.14 119.27 C88.2 76.07, 125 31.54, 153.38 1.42 M51.13 118.14 C86.93 77.72, 123.59 35.08, 153.74 0.37 M53.3 119.64 C79.06 90.53, 99.72 68.15, 159.39 -1.64 M54.66 120.33 C93.6 74.3, 131.51 29.86, 159.08 0.46 M62.53 119.67 C87.07 92.38, 107.85 61.53, 164.42 -0.66 M60.87 118.29 C89.61 85.39, 119.22 52.25, 164.92 0.28 M67.69 117.81 C89.17 91.03, 114.18 63.33, 170.03 -0.49 M66.6 119.32 C88.91 90.91, 115.65 62.21, 169.74 0.07 M71.57 119.32 C110.78 77.01, 148.43 31.98, 173.27 1.29 M72.28 119.47 C99.29 86.65, 126.69 55.2, 174.82 -0.96 M76.72 121.27 C102.56 89.87, 127.58 60.41, 181.52 1.35 M77.11 118.52 C110.01 81.82, 142.57 44.43, 180.44 -0.54 M82.73 119.47 C120.52 73.63, 159.94 28.87, 183.74 -0.52 M81.85 120.02 C115.58 80.56, 148.92 43.05, 185.64 -0.36 M87.08 121.37 C114.2 83.77, 147.31 51.01, 189.37 1.62 M87.95 120.34 C118.15 85.92, 146.89 50.76, 190.39 -0.02 M94.4 117.01 C122.75 88.35, 149.63 56.49, 195.55 0.71 M92.36 118.69 C120.25 89.28, 147.14 57.92, 195.37 0 M97.35 120 C116.94 96.81, 139.56 71.92, 200.03 1.94 M96.68 120.16 C124.94 88.58, 152.51 56.89, 200.15 2.66 M101.88 118.39 C135.11 82.33, 163.25 48.26, 199.09 8.65 M103.91 119.72 C133.48 85.47, 163.37 51.38, 199.59 8.32 M108.04 119.68 C127.21 96.74, 146.46 78.24, 198.27 12.78 M107.66 119.3 C130.77 91.89, 154.73 66.43, 199.97 14.3 M115.35 117.69 C130.76 100.26, 148.35 78.28, 199.18 21.52 M114.87 119.78 C135.44 94.35, 155.3 68.36, 200.18 21.67 M119.55 117.53 C143.41 92.95, 162.6 66.66, 200.85 24.85 M119.03 120.05 C138.94 98.66, 157.84 75.05, 200.5 25.78 M125.93 118.53 C144.16 98.58, 163.34 74.6, 199.84 32.61 M124.91 119.01 C149.63 91.18, 172.59 64.81, 199.12 33.56 M130.18 119.22 C157.94 88.19, 183.5 57.55, 198.9 38.27 M129.76 118.63 C150.12 95.84, 170.57 70.85, 200.15 38.25 M135.64 120.19 C150.88 105.23, 163.46 88.18, 199.76 43.84 M136.02 117.98 C152.65 99.01, 170.26 78.31, 198.93 44.49 M142.15 121.07 C156.88 100.58, 177.29 80.91, 199.81 51.52 M140.58 118.24 C159.34 97.11, 180.43 74.62, 199.98 51.06 M147.38 119.48 C160.65 102.32, 175.25 86.43, 200.18 56.96 M145.47 118.74 C164.46 98.13, 182.89 76.4, 199.59 56.16 M151.59 119.95 C166.89 101.68, 183.73 83.72, 199.85 64.4 M151.05 120.01 C164.6 102.69, 180.68 85.39, 199.29 63.75 M154.99 116.85 C164.36 110.38, 173.11 99.57, 198.26 68.34 M156.81 119.77 C169.75 104.93, 181.47 89.36, 198.9 69.24 M162.52 119.35 C176.69 100.54, 191.89 83.37, 198.2 76.55 M160.51 120.03 C175.78 101.1, 192.68 85.09, 198.75 75.59 M164.53 119.08 C174.88 110.64, 183.95 97.09, 200.4 83.68 M166.27 119.78 C176.84 107.85, 187.65 94.8, 198.76 81.08 M172.87 119.33 C181.39 105.56, 193.31 96.39, 197.65 86.48 M171.08 118.35 C180.28 110.28, 186.81 100.73, 199.93 87.54 M178.96 118.27 C183.38 109.07, 191.86 100.66, 198.88 93.01 M176.31 119.65 C186.31 108.93, 193.43 100, 198.86 93.72 M184.49 118.57 C189.33 113.77, 193.31 105.86, 197.85 98.28 M182.72 119.97 C187.02 114.65, 189.56 111.59, 199.76 100 M188.12 118.51 C190.78 116.92, 194.06 109.67, 198.07 105.29 M186.83 119.93 C191.37 115.46, 194.14 110.98, 199.69 105.49 M193.23 119.62 C195.89 117.12, 198.38 113.46, 199.9 112.3 M193.7 119.39 C194.96 116.73, 197.42 114.39, 199.02 112.4" stroke="#fab005" stroke-width="0.5" fill="none"></path><path d="M1.6 1.62 C72.79 2.59, 145.1 0.68, 197.03 -0.18 M-0.3 0.47 C77.7 -1.95, 153.34 -2.04, 197.18 -0.09 M198.02 0.6 C197.92 32.11, 195.12 64.9, 196.42 116.02 M196.15 -0.19 C197.75 46.11, 197.21 92.77, 196.27 116.46 M196.93 115.92 C137.58 117.25, 80.77 116.96, -1.2 119 M196.04 116.72 C131.38 115.06, 66.22 114.32, -0.63 117.27 M0.44 115.42 C0.65 85.12, 0.45 56.61, 1.42 -1.14 M-0.07 117.94 C-1.18 73.32, 0.39 27.92, -0.56 -0.31" stroke="#000000" stroke-width="1" fill="none"></path></g><g transform="translate(261.5 110) rotate(0 56.5 17.5)"><text x="56.5" y="25" font-family="Virgil, Segoe UI Emoji" font-size="28px" fill="#000000" text-anchor="middle" style="white-space: pre;" direction="ltr">Pipelines</text></g><g transform="translate(283 241.5) rotate(0 104.5 17.5)"><text x="0" y="25" font-family="Virgil, Segoe UI Emoji" font-size="28px" fill="#000000" text-anchor="start" style="white-space: pre;" direction="ltr">Low-level client</text></g><g stroke-linecap="round" transform="translate(425.5 68) rotate(0 98.5 58.5)"><path d="M0 0 C0 0, 0 0, 0 0 M0 0 C0 0, 0 0, 0 0 M-0.28 6.57 C0.77 4.39, 3.42 2.15, 5.02 0.69 M-0.58 6.49 C1.51 5.1, 3.05 3.18, 5.14 0.41 M0.87 13.37 C1.38 9.2, 6.78 5.97, 11.62 -0.93 M-0.3 12.83 C3.61 8.38, 6.14 6.35, 11.41 0.2 M-1.52 19.25 C2.8 11.13, 9.63 8.56, 15.6 1.83 M0.39 19.22 C4.66 13.89, 8.49 9.29, 15.39 0.61 M-1.33 23.37 C6.35 15.85, 13.59 8.06, 21.54 -0.12 M0 24.47 C5.3 18.83, 9.85 13.98, 21.57 0.18 M-0.14 30.97 C10.95 18.22, 19.76 9.95, 27.06 0.16 M-0.55 29.75 C8.34 19.7, 19.01 9.35, 26.59 -0.45 M-1.49 37.59 C10.41 28.32, 18.07 16.41, 30.98 -1.81 M-0.78 37.42 C10.02 24.76, 19.71 12.72, 31.25 -0.75 M-0.61 40.65 C14.71 25.63, 24.7 13.86, 38.35 -1.23 M0.79 41.57 C11.93 28.64, 24.73 15.13, 35.88 0.84 M-0.34 48.6 C17.23 29.02, 34.56 10.04, 41.78 -1.08 M-0.96 49.32 C9.47 37.16, 18.35 26.54, 43.08 -1.13 M1.55 52.59 C10.89 42.05, 24.67 26.02, 46.27 0.84 M0.4 55.51 C14.24 37.1, 28.89 20.46, 46.96 -0.02 M1.16 59.46 C13.69 46.14, 26.33 27.09, 54.47 -1.18 M0.04 61.85 C14.87 43.21, 31.62 24.19, 53.79 -1.13 M1.09 67.39 C16.3 52.65, 28.06 34.49, 59.54 0.19 M-0.07 67.6 C19.99 43.29, 42.19 19.22, 57.31 -0.61 M-1.41 71.1 C18.45 53.66, 34.27 32.43, 62.44 0.23 M-0.69 72.89 C16.77 54.29, 33.48 35.39, 63.39 0.53 M-0.4 81.03 C22.28 53.12, 41.9 30.79, 68.77 -0.82 M0.25 79.04 C22.53 52.7, 46.99 25.02, 69.24 -0.53 M1.45 85.03 C25.6 52.86, 51.9 23.67, 74.04 1.09 M0.68 84.27 C28.63 53.17, 57.62 20.51, 74.19 -0.4 M-0.37 91.3 C27.11 62.83, 49.36 34.37, 80.51 -1.19 M0.61 91.77 C22.71 65.96, 46.99 39.64, 78.85 -0.44 M-1.52 98.1 C24.29 70.59, 49.92 40.41, 86.5 0.91 M-0.83 97.5 C26.44 68.56, 52.13 38.07, 85.83 -0.74 M1.28 104.87 C28.76 71.82, 54.59 40.54, 91.18 0.64 M0.17 104.43 C24.46 73.53, 50.71 44.2, 91.01 0.95 M-1.68 109.5 C34.18 69.65, 68.61 29.17, 95.94 -1.17 M0.54 109.83 C34.97 69.59, 68.92 30.36, 96.2 -0.83 M-0.43 115.97 C19.99 92.01, 41.29 71.28, 101.12 0.85 M0.41 116.09 C36.43 74.01, 71.59 34.03, 100.41 -0.11 M2.13 120.27 C37.75 78.1, 69.75 42.21, 107.41 -0.45 M2.99 118.67 C30.76 85.05, 60.18 52.36, 106.52 0.43 M9.63 120.15 C40.69 79.91, 71.86 44.03, 112.59 0.19 M7.32 118.99 C46.71 76.74, 82.25 32.36, 110.53 0.58 M12.3 120.26 C53.38 72.88, 94.15 26.4, 116.21 0.13 M12.82 119.63 C44.53 83.3, 75.98 48.14, 115.63 1.34 M18.35 117.36 C41.99 92.09, 65.48 69.27, 123.72 -1.98 M18.03 118.65 C51.82 81.66, 85.1 45.09, 122.66 0.18 M21.97 116.99 C49.87 88.41, 80.08 54.8, 128.51 0.98 M23.01 118.34 C48.16 91.53, 72.48 62.98, 127.65 -0.61 M30.17 120.41 C59.42 87.14, 87.99 53.24, 130.59 -1.71 M29.62 119.29 C57.73 86.5, 87.88 53.19, 132.87 -0.21 M34.08 117.55 C74.74 73.56, 111.17 29.53, 139.41 0.33 M35.19 119.36 C53.83 93.78, 75.72 71.4, 137.03 0.81 M39.75 117.92 C71.89 78.33, 109.04 40.72, 145.15 -0.47 M38.76 119.8 C67.89 88.21, 93.52 58.23, 143.03 -0.52 M43.48 119.59 C80.39 79.11, 115.8 38.66, 149.57 1.29 M44.79 118.19 C79.67 81.43, 111.85 41.07, 148.16 0.51 M50.62 120.1 C71.01 93.44, 91.87 70.39, 153.28 0.9 M49.4 118.54 C80.91 83.23, 111.26 47.37, 153.82 -0.74 M54.24 118.14 C93.3 77.19, 130.18 37.6, 158.58 -1.47 M55.4 119.02 C76.38 95.2, 98.29 70.19, 159.73 -0.16 M61.22 120.76 C81.69 94.43, 101.72 70.9, 164.76 0.11 M59.81 118.3 C101.54 71.77, 143.36 25.52, 163.69 0.09 M64.34 120.55 C86.92 93.37, 109.64 68.92, 170.92 0.32 M66.35 118.77 C92.8 88.79, 118.62 59.59, 169.74 -0.36 M70.93 119.3 C90.4 93.59, 112.85 68.4, 175.27 -0.51 M71.53 119.34 C110.58 73.18, 150.55 26.72, 175.91 -1.1 M75.68 121.01 C100.29 91.27, 125.57 62.41, 181.96 -1.45 M75.81 118.53 C113.64 76.56, 151.21 33.66, 180.46 1.17 M81.99 118.72 C120.98 75.2, 156.86 28.62, 184.4 -0.04 M82.41 118.38 C110.08 88.61, 138.41 56.96, 185.55 -0.44 M86.73 119.57 C110.48 92.96, 131.11 67.51, 192.02 -1.33 M86.41 119.62 C111.48 91.74, 135.36 65.76, 191.49 -0.85 M93.58 119.61 C114.94 91.93, 141.74 64.68, 197.64 -0.97 M93.59 119.57 C118.82 88.96, 143.15 60.22, 196.45 -0.1 M97.85 120.86 C120.33 93.42, 141.88 64.8, 198.31 4.01 M97.57 119.3 C122.31 90.08, 147.84 60.96, 198.73 3.03 M103.77 118.14 C124.49 92.5, 146.76 71.68, 201.19 9.11 M102.53 119.53 C133.53 83.19, 164.75 47.11, 199.07 8.99 M109.33 120.11 C142.81 76.42, 182.57 36.69, 198.38 12.77 M108.5 119.79 C126.3 99.24, 144.9 76.5, 198.81 14.99 M115.55 120.11 C142.53 85.67, 167.6 55.54, 197.64 19.11 M113.97 118.34 C138.97 89.25, 163.38 60.84, 199.12 21.8 M119.34 121.15 C148.85 85.96, 178.57 49.15, 199.78 25.37 M119.21 119.26 C148.6 84.36, 178.2 51.11, 199.72 26.3 M122.79 118.86 C143.2 99.11, 158.72 79.39, 198.78 31.06 M124.93 118.5 C152.25 89.5, 177.85 57.7, 199.45 32.73 M129.98 118.4 C145.2 99.08, 161.02 80.85, 198.42 37.66 M129.52 118.84 C145.02 98.9, 162.26 80.19, 200.24 37.49 M136.3 117.39 C148.42 103.97, 162.9 85.86, 201.09 45.59 M135.75 117.99 C153.24 97.36, 172.93 76.52, 200.44 44.17 M141.25 118.87 C152.28 106.98, 165.87 92.78, 200.46 49.83 M140.03 119.6 C161.36 95.61, 183.29 69.69, 198.78 50.32 M145.77 118.23 C168.02 93.31, 188.6 68.28, 201.59 57.18 M145.07 119.25 C161.66 102.01, 176.47 84.7, 198.94 56.72 M149.04 120.15 C167.76 99.74, 180.41 85.31, 198.97 61.4 M151.15 119.56 C166.06 100.11, 181.91 83.53, 199.02 63.71 M157.81 117.54 C167.88 106.34, 182.67 92.75, 199.22 68.91 M156.8 118.15 C169.51 103.57, 181.79 89.34, 200.6 68.92 M163.17 120.46 C172.81 105.61, 186.03 88.23, 199.9 73.73 M162.07 118.72 C176.15 103, 190.11 87.23, 198.96 75.32 M165.27 119.82 C175.18 109.96, 185.31 97.58, 200.16 83.19 M166.53 119.79 C177.73 107.7, 187.77 94.75, 200.17 81.02 M173.36 120.58 C179.73 108.97, 186.36 101.93, 198.82 89.05 M171.8 120.01 C183.37 107, 193.05 95.22, 200.56 87.5 M175.9 120.91 C183.94 107.55, 196.47 100.6, 198.48 92.78 M177.08 120.44 C183.9 111.45, 191.65 102.42, 199.22 92.96 M183.22 117.89 C189.33 114.95, 190.73 110.04, 198.16 101.16 M182.14 118.31 C188.12 113.66, 192.68 107.51, 200.08 99.05 M186.48 118.58 C192.44 116.39, 192.82 113.73, 198.29 107.15 M187.62 119.12 C190.12 116.6, 193.32 112.57, 199.15 105.91 M192.86 119.64 C195.43 118.09, 195.49 115.46, 199.86 113.13 M193.03 119.23 C195.17 117.52, 196.78 115.48, 198.86 112.57" stroke="#82c91e" stroke-width="0.5" fill="none"></path><path d="M-1.42 1.22 C67.02 0.87, 130.97 1.23, 197.19 -0.3 M-0.31 -0.12 C65.45 0.64, 129.66 1.08, 197.45 -0.6 M197.61 -1.26 C196.44 25.35, 195.25 52.71, 197.95 117.98 M196.04 0.71 C195.29 33.33, 196.27 67.19, 196.49 116.98 M198.02 118.87 C132.52 119.63, 65.71 116.41, -1.47 118.92 M196.41 117.32 C119.97 115.96, 44.17 114.35, -0.77 117.62 M-0.79 117.23 C2.32 92.02, 2.48 66.18, -1.9 1.78 M-0.93 117.69 C0.41 89.74, 0.85 62.67, -0.95 0.24" stroke="#000000" stroke-width="1" fill="none"></path></g><g transform="translate(470 109) rotate(0 54 17.5)"><text x="54" y="25" font-family="Virgil, Segoe UI Emoji" font-size="28px" fill="#000000" text-anchor="middle" style="white-space: pre;" direction="ltr">Commits</text></g><g stroke-linecap="round" transform="translate(629 68.5) rotate(0 66 59)"><path d="M0.75 0.27 C50.98 -0.86, 105.2 0.54, 133.66 -1.73 M0.62 -0.56 C40.92 0.01, 81.74 -0.52, 132.99 0.93 M133.94 0.59 C133.03 26.99, 131.36 51.35, 132.81 116.07 M131.99 0.75 C131.77 24.55, 131.58 50.52, 132.78 118.33 M131.54 118.56 C86.99 120.05, 40.26 117.5, -0.71 117.86 M132.14 117.97 C98.96 117.18, 67.2 116.67, 0.39 118.39 M0.61 118.49 C0.8 81.51, 1.1 44.62, 0.49 1.68 M0.41 117.94 C-0.28 89.86, -0.3 63.13, -0.73 -0.96" stroke="#000000" stroke-width="1" fill="none"></path></g><g transform="translate(682.5 110) rotate(0 12.5 17.5)"><text x="12.5" y="25" font-family="Virgil, Segoe UI Emoji" font-size="28px" fill="#000000" text-anchor="middle" style="white-space: pre;" direction="ltr">...</text></g><g transform="translate(536.5 10) rotate(0 112 17.5)"><text x="0" y="25" font-family="Virgil, Segoe UI Emoji" font-size="28px" fill="#000000" text-anchor="start" style="white-space: pre;" direction="ltr">High-level clients</text></g></svg>