<svg xmlns="http://www.w3.org/2000/svg" fill-rule="evenodd" stroke-miterlimit="1.4" viewBox="0 0 191 35" clip-rule="evenodd" stroke-linejoin="round">
  <path fill="#C32630" fill-rule="nonzero" d="M186.8 35h-2c0-16.3-13.5-29.6-30-29.6v-2c17.6 0 32 14.2 32 31.6"/>
  <path fill="#C32630" fill-rule="nonzero" d="M188.2 24c-2.5-10-10.7-18.7-21-21.6l.3-1.7c11 3.2 19.7 12.2 22.3 23l-1.6.4zM189.7 14.5C187.2 9 183 4.3 177.7 1l.7-1c5.5 3.3 10 8.2 12.5 14l-1.3.5z"/>
  <path fill="#0F0F11" d="M157.6 25.2c.2-2 1.4-4.6 4.3-4.6 3 0 4 3 4 4.6h-8.4zm11 .8c0-3-1.3-7.4-6.4-7.4-4.6 0-7.4 3.7-7.4 8.4 0 4.8 3 8 7.7 8 2.5 0 4.3-.6 5.3-1l-.6-2c-1 .4-2.3.7-4.3.7-3 0-5.4-1.6-5.5-5.4h11V26m-19.8-5c1.6 0 2.6.3 3.3.6l.7-2.2c-.8-.4-2.3-.8-4-.8-5 0-8.4 3.5-8.4 8.4 0 4.8 3 8 7.8 8 2.2 0 4-.6 4.6-1l-.5-2c-.7.3-1.8.7-3.4.7-3 0-5.4-2.3-5.4-6 0-3 2-5.8 5.5-5.8m-15.3 1l-.2-3h-2.5l.2 4.8v10.8h2.7v-8.4V25c.5-2.2 2-3.7 4-3.7h1v-2.6h-1c-1.8 0-3.5 1.2-4.3 3.3m-7.3-3h-2.7v9.5c0 .6 0 1-.3 1.5-.5 1.3-1.8 2.6-3.7 2.6-2.6 0-3.5-2-3.5-5V19h-3v9c0 5.6 3 7 5.5 7 2.8 0 4.5-1.7 5.2-3l.2 2.6h2.6l-.2-4.3V19zM102 32.7c-2.8 0-4.8-2.6-4.8-6 0-3 1.5-6 4.8-6 3.4 0 4.7 3.3 4.7 6 0 3.5-2 6-4.7 6m0-14.2c-4.2 0-7.7 3-7.7 8.3 0 4.8 3.4 8 7.6 8 3.8 0 7.8-2.6 7.8-8.4 0-4.7-3-8-7.5-8m-14.5 7c-2-1-3-1.5-3-2.8 0-1 1-2 2.6-2s2.7.5 3.3.8l.7-2c-.8-.6-2.2-1-3.8-1-3.3 0-5.4 2-5.4 4.6 0 2 1.3 3.4 4.2 4.4 2 .8 2.8 1.5 2.8 3 0 1.2-1 2.2-3 2.2-1.4 0-3-.6-3.8-1l-.6 2c1 .7 2.7 1.2 4.4 1.2 3.6 0 5.8-2 5.8-4.8 0-2.3-1.4-3.7-4-4.7M74 21.7l-.2-3h-4.2V34.7h5v-8c0-.4 0-.8.2-1C75 23.8 76.3 23 78 23h1.5v-4.5h-1c-1.6 0-3.5 1-4.4 3.2m-13 7v1c-.4 1-1.4 1.8-2.6 1.8-1 0-2-.6-2-2 0-1.8 2-2.4 4.7-2.4V29zm4.8-3.5c0-3.7-1.6-6.8-7-6.8-2.8 0-5 .8-6 1.4l1 3.2c1-.7 2.6-1.2 4.2-1.2 2.5 0 3 1.2 3 2v.2c-5.7 0-9.4 2-9.4 6 0 2.6 2 5 5 5 2 0 3.6-.7 4.7-2l.4 1.6H66l-.2-3.8v-5.6zM43 18.4c-2.6 0-4.2 1.5-4.8 2.6l-.4-2.2h-4.2v15.8h5v-9c0-.6 0-1 .2-1.4.3-1 1-1.8 2.5-1.8 1.8 0 2.5 1.4 2.5 3.4v8.8h5v-9.4c0-4.6-2.5-6.8-5.8-6.8m-20.6 13c-2 0-3.2-2-3.2-4.7 0-2.4 1-4.8 3.2-4.8 2.3 0 3.2 2.3 3.2 4.6 0 3-1.2 4.8-3.2 4.8m.2-13c-5 0-8.5 3.2-8.5 8.4 0 5 3.7 8.2 8.3 8.2 4.2 0 8.3-2.7 8.3-8.5 0-4.8-3.2-8-8-8m-15 6.4C6 24 5.3 24 5.3 23c0-.7.6-1.2 1.8-1.2 1.4 0 2.8.5 3.5 1l.8-3.5c-1-.5-2.6-1-4.4-1-4 0-6.6 2.3-6.6 5.3 0 2 1.3 3.7 4.6 4.8 1.8.6 2.3 1 2.3 1.8s-.6 1.3-2 1.3c-1.6 0-3.5-.6-4.4-1.2l-1 3.5c1.2.7 3 1.2 5.2 1.2 4.5 0 6.8-2.2 6.8-5.2 0-2.3-1.3-3.8-4.3-5"/>
</svg>
