<?xml version="1.0" standalone="no"?>
<!DOCTYPE svg PUBLIC "-//W3C//DTD SVG 20010904//EN"
 "http://www.w3.org/TR/2001/REC-SVG-20010904/DTD/svg10.dtd">
<svg version="1.0" xmlns="http://www.w3.org/2000/svg"
 width="76.000000pt" height="76.000000pt" viewBox="0 0 76.000000 76.000000"
 preserveAspectRatio="xMidYMid meet">
<metadata>
Created by potrace 1.14, written by Peter Selinger 2001-2017
</metadata>
<g transform="translate(0.000000,76.000000) scale(0.100000,-0.100000)"
fill="#000000" stroke="none">
<path d="M174 693 l-102 -4 -7 -202 c-3 -111 -5 -251 -3 -312 l3 -110 318 -3
317 -2 -2 317 -3 318 -210 0 c-116 1 -256 -1 -311 -2z m111 -203 c27 -47 60
-103 73 -124 l23 -39 71 121 c68 118 71 122 104 122 l34 0 0 -190 0 -190 -35
0 -35 0 0 110 c0 61 -3 110 -8 110 -4 0 -31 -41 -60 -91 -67 -114 -77 -115
-143 -5 -70 116 -69 116 -69 -12 l0 -112 -34 0 -33 0 -8 184 c-4 102 -4 190 0
196 4 6 21 10 38 8 28 -3 37 -13 82 -88z"/>
</g>
</svg>
